<svg width="150" height="60" viewBox="0 0 150 60" fill="none" xmlns="http://www.w3.org/2000/svg">
<path fill-rule="evenodd" clip-rule="evenodd" d="M27.0906 21H17V38.9709H22.6031L27.0906 21ZM24.9184 38.9709L29.4059 21H46.2028V38.9709H24.9184Z" fill="white"/>
<path d="M57.777 32.7591H53.4269L52.2949 35.227H50.6431L55.6711 24.4273L60.5214 35.227H58.8432L57.777 32.7591ZM57.1518 31.3178L55.6447 27.8627L54.0653 31.3178H57.1518Z" fill="white"/>
<path d="M61.1466 31.9759C61.1466 31.0502 61.4778 30.2626 62.1403 29.6133C62.8028 28.964 63.6101 28.6393 64.5622 28.6393C65.5187 28.6393 66.3303 28.9661 66.9972 29.6199C67.6553 30.2736 67.9844 31.0765 67.9844 32.0286C67.9844 32.9894 67.6532 33.7945 66.9907 34.4439C66.3238 35.0888 65.5055 35.4113 64.5359 35.4113C63.575 35.4113 62.7699 35.0822 62.1206 34.4241C61.4713 33.7748 61.1466 32.9587 61.1466 31.9759ZM62.6603 32.0023C62.6603 32.6428 62.8314 33.1496 63.1736 33.5225C63.5246 33.8998 63.9875 34.0885 64.5622 34.0885C65.1413 34.0885 65.6042 33.902 65.9508 33.5291C66.2974 33.1561 66.4707 32.6582 66.4707 32.0352C66.4707 31.4121 66.2974 30.9142 65.9508 30.5412C65.5998 30.1639 65.137 29.9753 64.5622 29.9753C63.9962 29.9753 63.5377 30.1639 63.1867 30.5412C62.8357 30.9186 62.6603 31.4056 62.6603 32.0023Z" fill="white"/>
<path d="M71.1631 30.199V35.227H69.6823V30.199H69.0506V28.817H69.6823V26.4675H71.1631V28.817H72.3148V30.199H71.1631Z" fill="white"/>
<path d="M73.1111 31.9759C73.1111 31.0502 73.4424 30.2626 74.1049 29.6133C74.7674 28.964 75.5747 28.6393 76.5267 28.6393C77.4832 28.6393 78.2949 28.9661 78.9618 29.6199C79.6199 30.2736 79.9489 31.0765 79.9489 32.0286C79.9489 32.9894 79.6177 33.7945 78.9552 34.4439C78.2883 35.0888 77.47 35.4113 76.5004 35.4113C75.5396 35.4113 74.7345 35.0822 74.0851 34.4241C73.4358 33.7748 73.1111 32.9587 73.1111 31.9759ZM74.6248 32.0023C74.6248 32.6428 74.7959 33.1496 75.1381 33.5225C75.4891 33.8998 75.952 34.0885 76.5267 34.0885C77.1059 34.0885 77.5688 33.902 77.9154 33.5291C78.262 33.1561 78.4353 32.6582 78.4353 32.0352C78.4353 31.4121 78.262 30.9142 77.9154 30.5412C77.5644 30.1639 77.1015 29.9753 76.5267 29.9753C75.9608 29.9753 75.5023 30.1639 75.1513 30.5412C74.8003 30.9186 74.6248 31.4056 74.6248 32.0023Z" fill="white"/>
<path d="M83.0026 24.1115V30.89L85.0888 28.817H87.0763L84.2925 31.5087L87.2803 35.227H85.3586L83.2395 32.5222L83.0026 32.7591V35.227H81.5218V24.1115H83.0026Z" fill="white"/>
<path d="M89.7154 28.817V35.227H88.2346V28.817H89.7154ZM88.0109 26.1516C88.0109 25.8927 88.1052 25.669 88.2938 25.4803C88.4825 25.2917 88.7085 25.1973 88.9717 25.1973C89.2393 25.1973 89.4675 25.2917 89.6561 25.4803C89.8448 25.6646 89.9391 25.8906 89.9391 26.1582C89.9391 26.4258 89.8448 26.654 89.6561 26.8426C89.4719 27.0313 89.2459 27.1256 88.9783 27.1256C88.7107 27.1256 88.4825 27.0313 88.2938 26.8426C88.1052 26.654 88.0109 26.4236 88.0109 26.1516Z" fill="white"/>
<path d="M93.1178 30.199V35.227H91.6371V30.199H91.0053V28.817H91.6371V26.4675H93.1178V28.817H94.2695V30.199H93.1178Z" fill="white"/>
<path d="M99.0014 29.9094L97.7773 30.561C97.5842 30.1661 97.3451 29.9687 97.0599 29.9687C96.9239 29.9687 96.8077 30.0147 96.7111 30.1069C96.6146 30.1946 96.5664 30.3087 96.5664 30.4491C96.5664 30.6948 96.8515 30.9383 97.4219 31.1796C98.2073 31.5174 98.7359 31.8289 99.008 32.1141C99.28 32.3993 99.416 32.7832 99.416 33.2658C99.416 33.8845 99.1878 34.4022 98.7316 34.819C98.2884 35.2139 97.7532 35.4113 97.1258 35.4113C96.0508 35.4113 95.2896 34.887 94.8421 33.8384L96.1057 33.2527C96.2812 33.5598 96.415 33.755 96.5071 33.8384C96.687 34.0051 96.902 34.0885 97.1521 34.0885C97.6522 34.0885 97.9023 33.8603 97.9023 33.404C97.9023 33.1408 97.7093 32.8951 97.3232 32.6669C97.174 32.5924 97.0248 32.52 96.8757 32.4498C96.7265 32.3796 96.5751 32.3072 96.4216 32.2326C95.9916 32.022 95.6889 31.8114 95.5134 31.6008C95.2896 31.3332 95.1777 30.9888 95.1777 30.5676C95.1777 30.0104 95.3686 29.5497 95.7503 29.1855C96.1408 28.8214 96.6146 28.6393 97.1718 28.6393C97.9923 28.6393 98.6021 29.0627 99.0014 29.9094Z" fill="white"/>
<path d="M102.233 28.817V32.4958C102.233 33.5576 102.652 34.0885 103.49 34.0885C104.328 34.0885 104.747 33.5576 104.747 32.4958V28.817H106.227V32.5287C106.227 33.0421 106.164 33.4852 106.037 33.8581C105.914 34.1916 105.701 34.4921 105.398 34.7598C104.898 35.1941 104.262 35.4113 103.49 35.4113C102.722 35.4113 102.088 35.1941 101.588 34.7598C101.281 34.4921 101.063 34.1916 100.936 33.8581C100.813 33.5598 100.752 33.1167 100.752 32.5287V28.817H102.233Z" fill="white"/>
<path d="M108.097 28.817H109.577V29.3895C109.849 29.1044 110.091 28.9091 110.301 28.8038C110.516 28.6941 110.771 28.6393 111.065 28.6393C111.455 28.6393 111.863 28.7665 112.289 29.021L111.611 30.3767C111.33 30.1749 111.056 30.074 110.788 30.074C109.981 30.074 109.577 30.6838 109.577 31.9035V35.227H108.097V28.817Z" fill="white"/>
<path d="M114.829 28.817V32.4958C114.829 33.5576 115.248 34.0885 116.086 34.0885C116.924 34.0885 117.343 33.5576 117.343 32.4958V28.817H118.824V32.5287C118.824 33.0421 118.76 33.4852 118.633 33.8581C118.51 34.1916 118.297 34.4921 117.995 34.7598C117.494 35.1941 116.858 35.4113 116.086 35.4113C115.318 35.4113 114.684 35.1941 114.184 34.7598C113.877 34.4921 113.66 34.1916 113.533 33.8581C113.41 33.5598 113.348 33.1167 113.348 32.5287V28.817H114.829Z" fill="white"/>
<path d="M122.713 34.0358L119.831 28.817H121.548L123.51 32.5024L125.339 28.817H127.011L121.904 38.715H120.212L122.713 34.0358Z" fill="white"/>
<path d="M132.513 28.817H134V35.227H132.513V34.5557C131.903 35.1261 131.247 35.4113 130.545 35.4113C129.659 35.4113 128.926 35.091 128.347 34.4504C127.772 33.7967 127.485 32.9807 127.485 32.0023C127.485 31.0414 127.772 30.2407 128.347 29.6001C128.921 28.9596 129.641 28.6393 130.505 28.6393C131.251 28.6393 131.92 28.9464 132.513 29.5606V28.817ZM128.998 32.0023C128.998 32.6165 129.163 33.1167 129.492 33.5028C129.83 33.8932 130.255 34.0885 130.769 34.0885C131.317 34.0885 131.76 33.8998 132.098 33.5225C132.436 33.132 132.605 32.6362 132.605 32.0352C132.605 31.4341 132.436 30.9383 132.098 30.5478C131.76 30.1661 131.321 29.9753 130.782 29.9753C130.273 29.9753 129.847 30.1683 129.505 30.5544C129.167 30.9449 128.998 31.4275 128.998 32.0023Z" fill="white"/>
</svg>
