<svg width="150" height="60" viewBox="0 0 150 60" fill="none" xmlns="http://www.w3.org/2000/svg">
<path d="M47.4805 9.90625H49.3789L53.2578 28H50.8438L50.1641 24.4727H46.5781L45.8867 28H43.543L47.4805 9.90625ZM49.8125 22.5859L49.2734 19.7031C48.9141 17.7422 48.6211 15.6484 48.3945 13.4219C48.2852 14.5078 48.1445 15.6094 47.9727 16.7266C47.8008 17.8359 47.5977 19.0156 47.3633 20.2656L46.918 22.5859H49.8125ZM61.8008 22.0352C61.8008 26.1367 60.5312 28.1875 57.9922 28.1875C55.4531 28.1875 54.1836 26.1055 54.1836 21.9414C54.1836 17.7617 55.4492 15.6719 57.9805 15.6719C58.6367 15.6719 59.2031 15.7969 59.6797 16.0469C60.1641 16.2969 60.5625 16.6836 60.875 17.207C61.1875 17.7305 61.418 18.3906 61.5664 19.1875C61.7227 19.9844 61.8008 20.9336 61.8008 22.0352ZM59.4805 21.9766C59.4805 20.3828 59.375 19.2734 59.1641 18.6484C58.9531 18.0156 58.5781 17.6992 58.0391 17.6992C57.5078 17.6992 57.1289 18.0117 56.9023 18.6367C56.6914 19.2617 56.5859 20.3516 56.5859 21.9062C56.5859 23.4609 56.6914 24.5469 56.9023 25.1641C57.1289 25.7891 57.5078 26.1016 58.0391 26.1016C58.5703 26.1016 58.9414 25.793 59.1523 25.1758C59.3711 24.5977 59.4805 23.5312 59.4805 21.9766ZM64.1445 12.4727H66.3828V15.8711H67.6016V17.6523H66.3828V28H64.1445V17.6523H62.9141V15.8711H64.1445V12.4727ZM76.332 22.0352C76.332 26.1367 75.0625 28.1875 72.5234 28.1875C69.9844 28.1875 68.7148 26.1055 68.7148 21.9414C68.7148 17.7617 69.9805 15.6719 72.5117 15.6719C73.168 15.6719 73.7344 15.7969 74.2109 16.0469C74.6953 16.2969 75.0938 16.6836 75.4062 17.207C75.7188 17.7305 75.9492 18.3906 76.0977 19.1875C76.2539 19.9844 76.332 20.9336 76.332 22.0352ZM74.0117 21.9766C74.0117 20.3828 73.9062 19.2734 73.6953 18.6484C73.4844 18.0156 73.1094 17.6992 72.5703 17.6992C72.0391 17.6992 71.6602 18.0117 71.4336 18.6367C71.2227 19.2617 71.1172 20.3516 71.1172 21.9062C71.1172 23.4609 71.2227 24.5469 71.4336 25.1641C71.6602 25.7891 72.0391 26.1016 72.5703 26.1016C73.1016 26.1016 73.4727 25.793 73.6836 25.1758C73.9023 24.5977 74.0117 23.5312 74.0117 21.9766ZM78.4297 8.08984H80.668V21.2734L83.5156 15.8711H86.0469L82.9531 21.2734L86.457 28H83.832L80.668 21.5547V28H78.4297V8.08984ZM87.8281 15.8711H90.0781V28H87.8281V15.8711ZM88.8828 10.7148C89.2891 10.7148 89.6406 10.8633 89.9375 11.1602C90.2344 11.457 90.3828 11.8125 90.3828 12.2266C90.3828 12.6484 90.2344 13.0078 89.9375 13.3047C89.6406 13.6016 89.2812 13.75 88.8594 13.75C88.4375 13.75 88.0781 13.6016 87.7812 13.3047C87.4922 13.0156 87.3477 12.6523 87.3477 12.2148C87.3477 11.8086 87.4961 11.457 87.793 11.1602C88.1133 10.8633 88.4766 10.7148 88.8828 10.7148ZM92.8789 12.4727H95.1172V15.8711H96.3359V17.6523H95.1172V28H92.8789V17.6523H91.6484V15.8711H92.8789V12.4727ZM102.641 16.1172V18.2148C102.094 17.8086 101.52 17.6055 100.918 17.6055C100.715 17.6055 100.527 17.6406 100.355 17.7109C100.184 17.7812 100.031 17.8789 99.8984 18.0039C99.7734 18.1211 99.6719 18.2656 99.5938 18.4375C99.5234 18.6016 99.4883 18.7773 99.4883 18.9648C99.4883 19.543 100.012 20.2305 101.059 21.0273C101.48 21.3555 101.832 21.6602 102.113 21.9414C102.395 22.2227 102.609 22.4883 102.758 22.7383C103.062 23.2305 103.215 23.8516 103.215 24.6016C103.215 25.6875 102.898 26.5586 102.266 27.2148C101.641 27.8633 100.801 28.1875 99.7461 28.1875C99.0977 28.1875 98.4414 27.9961 97.7773 27.6133V25.4453C98.4258 25.9297 99.0391 26.1719 99.6172 26.1719C100.641 26.1719 101.152 25.668 101.152 24.6602C101.152 24.2852 101.059 23.9609 100.871 23.6875C100.785 23.5547 100.648 23.4023 100.461 23.2305C100.273 23.0508 100.043 22.8516 99.7695 22.6328C98.8242 21.8984 98.1836 21.2812 97.8477 20.7812C97.5195 20.2656 97.3555 19.6445 97.3555 18.918C97.3555 17.9414 97.6562 17.1406 98.2578 16.5156C98.8672 15.8984 99.6602 15.5898 100.637 15.5898C101.324 15.5898 101.992 15.7656 102.641 16.1172ZM105.008 15.8711H107.258V28H105.008V15.8711ZM106.062 10.7148C106.469 10.7148 106.82 10.8633 107.117 11.1602C107.414 11.457 107.562 11.8125 107.562 12.2266C107.562 12.6484 107.414 13.0078 107.117 13.3047C106.82 13.6016 106.461 13.75 106.039 13.75C105.617 13.75 105.258 13.6016 104.961 13.3047C104.672 13.0156 104.527 12.6523 104.527 12.2148C104.527 11.8086 104.676 11.457 104.973 11.1602C105.293 10.8633 105.656 10.7148 106.062 10.7148ZM109.789 15.8711H112.027V17.3828C112.41 16.7422 112.789 16.293 113.164 16.0352C113.539 15.7773 114.035 15.6289 114.652 15.5898V17.9336C114.496 17.9102 114.363 17.8984 114.254 17.8984C113.449 17.8984 112.875 18.1055 112.531 18.5195C112.195 18.9258 112.027 19.6367 112.027 20.6523V28H109.789V15.8711ZM116.258 15.8711H118.496V23.9805C118.512 24.7305 118.621 25.2656 118.824 25.5859C119.035 25.9062 119.383 26.0664 119.867 26.0664C120.375 26.0664 120.73 25.9258 120.934 25.6445C121.137 25.3477 121.238 24.832 121.238 24.0977V23.125V15.8711H123.477V23.125C123.477 24.8203 123.352 25.9531 123.102 26.5234C122.578 27.6328 121.492 28.1875 119.844 28.1875C118.547 28.1875 117.625 27.8594 117.078 27.2031C116.531 26.5391 116.258 25.4336 116.258 23.8867V15.8711ZM124.836 15.8711H127.367L129.148 24.332L131.234 15.8711H133.508L128.551 32.9688H126.195L128.059 27.0273L124.836 15.8711ZM141.723 15.8711V28H139.484V26.4414C139.164 27.1055 138.844 27.5625 138.523 27.8125C138.203 28.0625 137.781 28.1875 137.258 28.1875C136.25 28.1875 135.512 27.6719 135.043 26.6406C134.574 25.6094 134.34 23.9922 134.34 21.7891C134.34 19.6875 134.574 18.1445 135.043 17.1602C135.512 16.168 136.25 15.6719 137.258 15.6719C138.18 15.6719 138.922 16.1953 139.484 17.2422V15.8711H141.723ZM136.66 21.8828C136.66 23.4766 136.766 24.5898 136.977 25.2227C137.195 25.8555 137.578 26.1719 138.125 26.1719C138.625 26.1719 138.988 25.8438 139.215 25.1875C139.441 24.4844 139.555 23.4023 139.555 21.9414C139.555 20.4727 139.441 19.3867 139.215 18.6836C138.988 18.0273 138.625 17.6992 138.125 17.6992C137.594 17.6992 137.215 18.0117 136.988 18.6367C136.77 19.2148 136.66 20.2969 136.66 21.8828ZM99.7227 31.9062H102.934C104.262 31.9062 105.25 32.2227 105.898 32.8555C106.719 33.6758 107.129 34.9297 107.129 36.6172C107.129 37.9141 106.91 38.957 106.473 39.7461C106.043 40.5273 105.426 41.0117 104.621 41.1992L107.949 50H105.477L102.16 41.1406V50H99.7227V31.9062ZM102.16 39.9219C103.105 39.9219 103.773 39.7031 104.164 39.2656C104.555 38.8281 104.75 38.0898 104.75 37.0508C104.75 36.4883 104.707 36.0078 104.621 35.6094C104.543 35.2109 104.414 34.8867 104.234 34.6367C104.062 34.3867 103.836 34.2031 103.555 34.0859C103.281 33.9688 102.953 33.9102 102.57 33.9102H102.16V39.9219ZM116.363 37.8711V50H114.125V48.4414C113.805 49.1055 113.484 49.5625 113.164 49.8125C112.844 50.0625 112.422 50.1875 111.898 50.1875C110.891 50.1875 110.152 49.6719 109.684 48.6406C109.215 47.6094 108.98 45.9922 108.98 43.7891C108.98 41.6875 109.215 40.1445 109.684 39.1602C110.152 38.168 110.891 37.6719 111.898 37.6719C112.82 37.6719 113.562 38.1953 114.125 39.2422V37.8711H116.363ZM111.301 43.8828C111.301 45.4766 111.406 46.5898 111.617 47.2227C111.836 47.8555 112.219 48.1719 112.766 48.1719C113.266 48.1719 113.629 47.8438 113.855 47.1875C114.082 46.4844 114.195 45.4023 114.195 43.9414C114.195 42.4727 114.082 41.3867 113.855 40.6836C113.629 40.0273 113.266 39.6992 112.766 39.6992C112.234 39.6992 111.855 40.0117 111.629 40.6367C111.41 41.2148 111.301 42.2969 111.301 43.8828ZM125.832 30.0898V50H123.594V48.4414C123.273 49.1055 122.953 49.5625 122.633 49.8125C122.312 50.0625 121.887 50.1875 121.355 50.1875C120.355 50.1875 119.621 49.6758 119.152 48.6523C118.684 47.6211 118.449 46.0039 118.449 43.8008C118.449 42.7383 118.508 41.8203 118.625 41.0469C118.742 40.2734 118.918 39.6367 119.152 39.1367C119.395 38.6367 119.703 38.2695 120.078 38.0352C120.453 37.793 120.898 37.6719 121.414 37.6719C121.906 37.6719 122.312 37.7891 122.633 38.0234C122.789 38.1328 122.949 38.2891 123.113 38.4922C123.277 38.6953 123.438 38.9453 123.594 39.2422V30.0898H125.832ZM120.77 43.8828C120.77 45.4766 120.875 46.5898 121.086 47.2227C121.305 47.8555 121.688 48.1719 122.234 48.1719C122.734 48.1719 123.098 47.8438 123.324 47.1875C123.551 46.4844 123.664 45.4023 123.664 43.9414C123.664 42.4727 123.551 41.3867 123.324 40.6836C123.098 40.0273 122.734 39.6992 122.234 39.6992C121.703 39.6992 121.324 40.0117 121.098 40.6367C120.879 41.2148 120.77 42.2969 120.77 43.8828ZM135.301 37.8711V50H133.062V48.4414C132.742 49.1055 132.422 49.5625 132.102 49.8125C131.781 50.0625 131.359 50.1875 130.836 50.1875C129.828 50.1875 129.09 49.6719 128.621 48.6406C128.152 47.6094 127.918 45.9922 127.918 43.7891C127.918 41.6875 128.152 40.1445 128.621 39.1602C129.09 38.168 129.828 37.6719 130.836 37.6719C131.758 37.6719 132.5 38.1953 133.062 39.2422V37.8711H135.301ZM130.238 43.8828C130.238 45.4766 130.344 46.5898 130.555 47.2227C130.773 47.8555 131.156 48.1719 131.703 48.1719C132.203 48.1719 132.566 47.8438 132.793 47.1875C133.02 46.4844 133.133 45.4023 133.133 43.9414C133.133 42.4727 133.02 41.3867 132.793 40.6836C132.566 40.0273 132.203 39.6992 131.703 39.6992C131.172 39.6992 130.793 40.0117 130.566 40.6367C130.348 41.2148 130.238 42.2969 130.238 43.8828ZM137.844 37.8711H140.082V39.3828C140.465 38.7422 140.844 38.293 141.219 38.0352C141.594 37.7773 142.09 37.6289 142.707 37.5898V39.9336C142.551 39.9102 142.418 39.8984 142.309 39.8984C141.504 39.8984 140.93 40.1055 140.586 40.5195C140.25 40.9258 140.082 41.6367 140.082 42.6523V50H137.844V37.8711Z" fill="white"/>
<path fill-rule="evenodd" clip-rule="evenodd" d="M17.7116 9H7V28H12.9479L17.7116 9ZM15.4057 28L20.1694 9H38V28H15.4057Z" fill="white"/>
</svg>
